<?xml version="1.0" standalone="no"?><!DOCTYPE svg PUBLIC "-//W3C//DTD SVG 1.1//EN" "http://www.w3.org/Graphics/SVG/1.1/DTD/svg11.dtd"><svg t="1743412418791" class="icon" viewBox="0 0 1024 1024" version="1.1" xmlns="http://www.w3.org/2000/svg" p-id="7023" id="mx_n_1743412418793" xmlns:xlink="http://www.w3.org/1999/xlink" width="200" height="200"><path d="M435.17952 882.688H207.31904a55.296 55.296 0 0 1-55.296-55.296V196.7104a55.296 55.296 0 0 1 55.296-55.296h630.5792a55.296 55.296 0 0 1 55.296 55.00928l3.03104 196.9152a30.72 30.72 0 0 1-30.22848 31.19104h-0.49152a30.72 30.72 0 0 1-30.72-30.22848l-2.94912-191.44704H213.46304V821.248h221.71648a30.72 30.72 0 1 1 0 61.44z" fill="#1890ff" p-id="7024"></path><path d="M865.52576 704.77824H549.56032a30.72 30.72 0 1 1 0-61.44h315.96544a30.72 30.72 0 0 1 0 61.44z" fill="#1890ff" p-id="7025"></path><path d="M752.47616 835.11296a30.72 30.72 0 0 1-21.72928-52.44928l111.39072-111.37024-111.39072-111.39072A30.72 30.72 0 1 1 774.144 516.46464l133.12 133.12a30.72 30.72 0 0 1 0 43.43808l-133.12 133.12a30.72 30.72 0 0 1-21.66784 8.97024z" fill="#1890ff" p-id="7026"></path></svg>